<?xml version="1.0" encoding="UTF-8" standalone="no"?>
<!-- Generator: Adobe Illustrator 11.0, SVG Export Plug-In . SVG Version: 6.0.0 Build 78)  -->

<svg
   xmlns:dc="http://purl.org/dc/elements/1.1/"
   xmlns:cc="http://creativecommons.org/ns#"
   xmlns:rdf="http://www.w3.org/1999/02/22-rdf-syntax-ns#"
   xmlns:svg="http://www.w3.org/2000/svg"
   xmlns="http://www.w3.org/2000/svg"
   xmlns:xlink="http://www.w3.org/1999/xlink"
   xmlns:sodipodi="http://sodipodi.sourceforge.net/DTD/sodipodi-0.dtd"
   xmlns:inkscape="http://www.inkscape.org/namespaces/inkscape"
   width="62"
   height="42.002"
   viewBox="0 0 62 42.002"
   overflow="visible"
   enable-background="new 0 0 62 42.002"
   xml:space="preserve"
   id="svg2"
   version="1.1"
   inkscape:version="0.91 r13725"
   sodipodi:docname="nimrodok-cache.svg"><metadata
     id="metadata15"><rdf:RDF><cc:Work
         rdf:about=""><dc:format>image/svg+xml</dc:format><dc:type
           rdf:resource="http://purl.org/dc/dcmitype/StillImage" /><dc:title></dc:title></cc:Work></rdf:RDF></metadata><defs
     id="defs13"><filter
       style="color-interpolation-filters:sRGB"
       inkscape:collect="always"
       id="filter6093"
       x="-0.064257026"
       width="1.1285141"
       y="-0.19277108"
       height="1.3855422"><feGaussianBlur
         inkscape:collect="always"
         stdDeviation="0.89250425"
         id="feGaussianBlur6095" /></filter><linearGradient
       inkscape:collect="always"
       xlink:href="#linearGradient5495"
       id="linearGradient6110"
       gradientUnits="userSpaceOnUse"
       gradientTransform="matrix(1.1818182,0,0,1.1818182,-30.64896,-69.394391)"
       spreadMethod="reflect"
       x1="269.96979"
       y1="511.96591"
       x2="286.62845"
       y2="511.96591" /><linearGradient
       id="linearGradient5495"
       inkscape:collect="always"><stop
         id="stop5497"
         offset="0"
         style="stop-color:#c6c6c6;stop-opacity:1" /><stop
         style="stop-color:#e3e3e3;stop-opacity:1"
         offset="0.20484632"
         id="stop5501" /><stop
         id="stop5499"
         offset="1"
         style="stop-color:#a5a5a8;stop-opacity:1" /></linearGradient><linearGradient
       inkscape:collect="always"
       xlink:href="#linearGradient5466"
       id="linearGradient6112"
       gradientUnits="userSpaceOnUse"
       x1="282.35706"
       y1="518.55707"
       x2="286.6308"
       y2="527.33539" /><linearGradient
       inkscape:collect="always"
       id="linearGradient5466"><stop
         style="stop-color:#e3e3e3;stop-opacity:1"
         offset="0"
         id="stop5468" /><stop
         style="stop-color:#a5a5a8;stop-opacity:1"
         offset="1"
         id="stop5470" /></linearGradient><linearGradient
       inkscape:collect="always"
       xlink:href="#linearGradient6035"
       id="linearGradient6114"
       gradientUnits="userSpaceOnUse"
       gradientTransform="translate(0,0.25)"
       spreadMethod="reflect"
       x1="308.5"
       y1="522.61218"
       x2="327.78125"
       y2="520.32812" /><linearGradient
       id="linearGradient6035"><stop
         style="stop-color:#ffffff;stop-opacity:1;"
         offset="0"
         id="stop6037" /><stop
         style="stop-color:#ffffff;stop-opacity:0;"
         offset="1"
         id="stop6039" /></linearGradient><linearGradient
       inkscape:collect="always"
       xlink:href="#linearGradient6035"
       id="linearGradient6116"
       gradientUnits="userSpaceOnUse"
       gradientTransform="translate(0,12)"
       spreadMethod="reflect"
       x1="308.5"
       y1="522.61218"
       x2="327.78125"
       y2="520.32812" /><linearGradient
       inkscape:collect="always"
       xlink:href="#linearGradient6035"
       id="linearGradient6118"
       gradientUnits="userSpaceOnUse"
       gradientTransform="translate(0,22)"
       spreadMethod="reflect"
       x1="308.5"
       y1="522.61218"
       x2="327.78125"
       y2="520.32812" /></defs><sodipodi:namedview
     pagecolor="#ffffff"
     bordercolor="#666666"
     borderopacity="1"
     objecttolerance="10"
     gridtolerance="10"
     guidetolerance="10"
     inkscape:pageopacity="0"
     inkscape:pageshadow="2"
     inkscape:window-width="1536"
     inkscape:window-height="811"
     id="namedview11"
     showgrid="false"
     inkscape:zoom="9.2903226"
     inkscape:cx="27.734286"
     inkscape:cy="21.553838"
     inkscape:window-x="-8"
     inkscape:window-y="-8"
     inkscape:window-maximized="1"
     inkscape:current-layer="svg2" /><path
     d="m 61,35.002 c 0,3.313 -2.686,6 -6,6 l -48,0 c -3.314,0 -6,-2.688 -6,-6 L 1,7 C 1,3.687 3.686,1 7,1 l 48,0 c 3.314,0 6,2.688 6,6 l 0,28.002 z"
     id="path7"
     inkscape:connector-curvature="0"
     style="fill:#1d9598;stroke:#1d9598;stroke-width:2" /><polygon
     display="none"
     points="5.632,9.971 50.063,9.971 50.063,13.787 55.901,7.949 50.063,2.111 50.063,5.926 5.632,5.926 "
     id="polygon9"
     style="display:none;fill:#ffffff" /><g
     id="g6097"
     transform="matrix(0.6996974,0,0,0.6996974,-184.21595,-353.01547)"><ellipse
       ry="5.5558391"
       rx="16.667517"
       cy="521.77954"
       cx="286.6308"
       style="fill:#2e3436;fill-opacity:1;stroke:none;filter:url(#filter6093)"
       id="path6079"
       transform="matrix(1.1818182,0,0,1.1818182,-30.64896,-65.983596)" /><path
       inkscape:connector-curvature="0"
       sodipodi:nodetypes="cccssscccc"
       id="path5488"
       d="m 288.40625,517.5 0,30.09191 0.125,0 c -0.0806,0.24126 -0.125,0.47032 -0.125,0.71875 0,3.6263 8.80861,6.5625 19.6875,6.5625 10.87889,0 19.6875,-2.9362 19.6875,-6.5625 0,-0.24879 -0.0442,-0.47715 -0.125,-0.71875 l 0.125,0 0,-30.09191 -39.375,0 z"
       style="fill:url(#linearGradient6110);fill-opacity:1;stroke:none" /><ellipse
       ry="5.5558391"
       rx="16.667517"
       cy="521.77954"
       cx="286.6308"
       transform="matrix(1.1818182,0,0,1.1818182,-30.64896,-99.394391)"
       id="path5460"
       style="fill:url(#linearGradient6112);fill-opacity:1;stroke:none" /><path
       inkscape:connector-curvature="0"
       id="path6026"
       d="m 288.375,539.09375 c 0.14735,3.58398 8.93182,6.46875 19.71875,6.46875 10.75628,0 19.4918,-2.86766 19.6875,-6.4375 -3.45152,2.93589 -10.95919,4.96875 -19.6875,4.96875 -8.74612,0 -16.27686,-2.05444 -19.71875,-5 z"
       style="fill:#565656;fill-opacity:1;stroke:none" /><path
       inkscape:connector-curvature="0"
       id="path6030"
       d="m 288.375,517.34375 c 0.14735,3.58398 8.93182,6.46875 19.71875,6.46875 10.75628,0 19.4918,-2.86766 19.6875,-6.4375 -0.21572,0.18349 -0.44078,0.35509 -0.6875,0.53125 -0.009,0.0117 -0.0216,0.0196 -0.0312,0.0312 -2.29214,2.77744 -9.90349,4.8125 -18.96875,4.8125 -9.12203,0 -16.78563,-2.07074 -19.03125,-4.875 -0.0249,-0.0179 -0.038,-0.0446 -0.0625,-0.0625 -0.21872,-0.15969 -0.43159,-0.30323 -0.625,-0.46875 z"
       style="fill:url(#linearGradient6114);fill-opacity:1;stroke:none" /><g
       id="g6071"><g
         transform="translate(0,-0.52315203)"
         id="g6067"><path
           inkscape:connector-curvature="0"
           style="fill:#565656;fill-opacity:1;stroke:none"
           d="m 288.375,529.09375 c 0.14735,3.58398 8.93182,6.46875 19.71875,6.46875 10.75628,0 19.4918,-2.86766 19.6875,-6.4375 -3.45152,2.93589 -10.95919,4.96875 -19.6875,4.96875 -8.74612,0 -16.27686,-2.05444 -19.71875,-5 z"
           id="path6022" /><path
           inkscape:connector-curvature="0"
           id="path6043"
           d="m 288.375,529.09375 c 0.14735,3.58398 8.93182,6.46875 19.71875,6.46875 10.75628,0 19.4918,-2.86766 19.6875,-6.4375 -0.0497,0.0422 -0.10543,0.0838 -0.15625,0.125 -1.24216,3.22677 -9.51064,5.71875 -19.53125,5.71875 -10.11275,0 -18.46774,-2.51121 -19.59375,-5.78125 -0.0401,-0.0317 -0.0863,-0.0607 -0.125,-0.0937 z"
           style="fill:url(#linearGradient6116);fill-opacity:1;stroke:none" /></g><path
         inkscape:connector-curvature="0"
         id="path6054"
         d="m 288.375,539.09375 c 0.14735,3.58398 8.93182,6.46875 19.71875,6.46875 10.75628,0 19.4918,-2.86766 19.6875,-6.4375 -0.0497,0.0422 -0.10543,0.0838 -0.15625,0.125 -1.24216,3.22677 -9.51064,5.71875 -19.53125,5.71875 -10.11275,0 -18.46774,-2.51121 -19.59375,-5.78125 -0.0401,-0.0317 -0.0863,-0.0607 -0.125,-0.0937 z"
         style="fill:url(#linearGradient6118);fill-opacity:1;stroke:none" /></g><path
       inkscape:connector-curvature="0"
       id="path6060"
       d="m 288.5,549.9375 c 1.12601,3.27004 9.481,5.78125 19.59375,5.78125 10.02061,0 18.28909,-2.49198 19.53125,-5.71875 -3.51634,2.86779 -10.92856,4.84375 -19.53125,4.84375 -8.64783,0 -16.10003,-2.01374 -19.59375,-4.90625 z"
       style="fill:#565656;fill-opacity:1;stroke:none" /></g></svg>