<?xml version="1.0" encoding="UTF-8" standalone="no"?>
<!-- Generator: Adobe Illustrator 11.0, SVG Export Plug-In . SVG Version: 6.0.0 Build 78)  -->

<svg
   xmlns:dc="http://purl.org/dc/elements/1.1/"
   xmlns:cc="http://creativecommons.org/ns#"
   xmlns:rdf="http://www.w3.org/1999/02/22-rdf-syntax-ns#"
   xmlns:svg="http://www.w3.org/2000/svg"
   xmlns="http://www.w3.org/2000/svg"
   xmlns:sodipodi="http://sodipodi.sourceforge.net/DTD/sodipodi-0.dtd"
   xmlns:inkscape="http://www.inkscape.org/namespaces/inkscape"
   width="62"
   height="42.002"
   viewBox="0 0 62 42.002"
   overflow="visible"
   enable-background="new 0 0 62 42.002"
   xml:space="preserve"
   id="svg3404"
   version="1.1"
   inkscape:version="0.91 r13725"
   sodipodi:docname="nimrodok-point2array.svg"><metadata
     id="metadata3417"><rdf:RDF><cc:Work
         rdf:about=""><dc:format>image/svg+xml</dc:format><dc:type
           rdf:resource="http://purl.org/dc/dcmitype/StillImage" /></cc:Work></rdf:RDF></metadata><defs
     id="defs3415" /><sodipodi:namedview
     pagecolor="#ffffff"
     bordercolor="#666666"
     borderopacity="1"
     objecttolerance="10"
     gridtolerance="10"
     guidetolerance="10"
     inkscape:pageopacity="0"
     inkscape:pageshadow="2"
     inkscape:window-width="1536"
     inkscape:window-height="811"
     id="namedview3413"
     showgrid="false"
     inkscape:zoom="7.5884098"
     inkscape:cx="12.843961"
     inkscape:cy="22.981672"
     inkscape:window-x="-8"
     inkscape:window-y="-8"
     inkscape:window-maximized="1"
     inkscape:current-layer="svg3404" /><g
     id="Layer_1"><g
       id="g3407"><path
         d="M61,35.002c0,3.313-2.686,6-6,6H7c-3.314,0-6-2.688-6-6V7      c0-3.313,2.686-6,6-6h48c3.314,0,6,2.688,6,6V35.002z"
         id="path3409"
         stroke-width="2"
         stroke="#1D9598"
         fill="#1D9598" /><polygon
         display="none"
         points="55.901,7.949 50.063,2.111 50.063,5.926 5.632,5.926 5.632,9.971 50.063,9.971       50.063,13.787 "
         id="polygon3411"
         fill="#FFFFFF" /></g></g><path
     inkscape:connector-curvature="0"
     id="path4141"
     style="font-style:normal;font-variant:normal;font-weight:bold;font-stretch:normal;font-size:7.5px;line-height:125%;font-family:sans-serif;-inkscape-font-specification:'sans-serif Bold';text-align:center;letter-spacing:0px;word-spacing:0px;text-anchor:middle;fill:#000000;fill-opacity:1;stroke:none;stroke-width:1px;stroke-linecap:butt;stroke-linejoin:miter;stroke-opacity:1"
     d="m 5.8161793,15.742762 -1.003418,0 q -0.7104492,0 -1.1352539,-0.362549 -0.4211426,-0.358887 -0.4211426,-1.054688 l 0,-0.53833 q 0,-0.651855 -0.2893066,-0.904541 -0.2893067,-0.256347 -0.9338379,-0.256347 l -0.2563477,0 0,-0.900879 0.2563477,0 q 0.6445312,0 0.9338379,-0.252686 0.2893066,-0.256348 0.2893066,-0.908203 l 0,-0.53833 q 0,-0.6958009 0.4211426,-1.0546876 0.4248047,-0.3625489 1.1352539,-0.3625489 l 1.003418,0 0,0.8203125 -0.4174805,0 q -0.2197266,0 -0.3991699,0.032959 Q 4.8237476,9.495203 4.702898,9.5867558 4.5783863,9.6819706 4.5161304,9.8650761 4.4538746,10.044519 4.4538746,10.330164 l 0,0.39917 q 0,0.512695 -0.2893067,0.856933 -0.2856445,0.344239 -0.8166503,0.545655 l 0,0.08789 q 0.5310058,0.201416 0.8166503,0.545655 0.2893067,0.344238 0.2893067,0.856933 l 0,0.39917 q 0,0.285645 0.062256,0.465088 0.062256,0.183106 0.1867676,0.27832 0.1171875,0.09522 0.2966309,0.124512 0.1794433,0.03296 0.3991699,0.03296 l 0.4174805,0 0,0.820313 z" /><path
     inkscape:connector-curvature="0"
     id="path4143"
     style="font-style:normal;font-variant:normal;font-weight:bold;font-stretch:normal;font-size:7.5px;line-height:125%;font-family:sans-serif;-inkscape-font-specification:'sans-serif Bold';text-align:center;letter-spacing:0px;word-spacing:0px;text-anchor:middle;fill:#000000;fill-opacity:1;stroke:none;stroke-width:1px;stroke-linecap:butt;stroke-linejoin:miter;stroke-opacity:1"
     d="m 11.474138,14.307215 -1.5380857,0 -0.8789062,-1.230469 -0.9008789,1.230469 -1.5087891,0 1.6223145,-2.054444 -1.5966797,-2.058105 1.5380859,0 0.8642578,1.208496 0.8679199,-1.208496 1.5124515,0 -1.6003421,2.025146 1.6186521,2.087403 z" /><path
     inkscape:connector-curvature="0"
     id="path4145"
     style="font-style:normal;font-variant:normal;font-weight:bold;font-stretch:normal;font-size:7.5px;line-height:125%;font-family:sans-serif;-inkscape-font-specification:'sans-serif Bold';text-align:center;letter-spacing:0px;word-spacing:0px;text-anchor:middle;fill:#000000;fill-opacity:1;stroke:none;stroke-width:1px;stroke-linecap:butt;stroke-linejoin:miter;stroke-opacity:1"
     d="m 19.732195,11.410486 -4.680176,0 0,-0.981445 4.680176,0 0,0.981445 z m 0,1.92627 -4.680176,0 0,-0.981446 4.680176,0 0,0.981446 z" /><path
     inkscape:connector-curvature="0"
     id="path4147"
     style="font-style:normal;font-variant:normal;font-weight:bold;font-stretch:normal;font-size:7.5px;line-height:125%;font-family:sans-serif;-inkscape-font-specification:'sans-serif Bold';text-align:center;letter-spacing:0px;word-spacing:0px;text-anchor:middle;fill:#000000;fill-opacity:1;stroke:none;stroke-width:1px;stroke-linecap:butt;stroke-linejoin:miter;stroke-opacity:1"
     d="m 28.129412,11.578943 q 0,0.688477 -0.124512,1.234131 -0.124512,0.541992 -0.388184,0.889893 -0.270996,0.355224 -0.6958,0.53833 -0.424805,0.179443 -1.047364,0.179443 -0.611572,0 -1.043701,-0.183105 -0.432129,-0.183106 -0.699463,-0.541993 -0.270996,-0.358886 -0.391845,-0.889892 -0.12085,-0.534668 -0.12085,-1.223145 0,-0.710449 0.124512,-1.23413 0.124511,-0.5236821 0.395507,-0.886231 0.270997,-0.3588867 0.703125,-0.53833 0.432129,-0.1794434 1.032715,-0.1794434 0.626221,0 1.051026,0.1867676 0.424804,0.1831054 0.6958,0.5493164 0.267334,0.3588867 0.388184,0.8862304 0.12085,0.523682 0.12085,1.212158 z m -1.417237,0 q 0,-0.988769 -0.194091,-1.40625 -0.194092,-0.4211423 -0.644532,-0.4211423 -0.450439,0 -0.644531,0.4211423 -0.194092,0.417481 -0.194092,1.413574 0,0.970459 0.197754,1.398926 0.197754,0.428467 0.640869,0.428467 0.443116,0 0.640869,-0.428467 0.197754,-0.428467 0.197754,-1.40625 z" /><path
     inkscape:connector-curvature="0"
     id="path4149"
     style="font-style:normal;font-variant:normal;font-weight:bold;font-stretch:normal;font-size:7.5px;line-height:125%;font-family:sans-serif;-inkscape-font-specification:'sans-serif Bold';text-align:center;letter-spacing:0px;word-spacing:0px;text-anchor:middle;fill:#000000;fill-opacity:1;stroke:none;stroke-width:1px;stroke-linecap:butt;stroke-linejoin:miter;stroke-opacity:1"
     d="m 30.802752,12.868006 -1.31836,2.794189 -0.81665,0 0.721435,-2.794189 1.413575,0 z" /><path
     inkscape:connector-curvature="0"
     id="path4151"
     style="font-style:normal;font-variant:normal;font-weight:bold;font-stretch:normal;font-size:7.5px;line-height:125%;font-family:sans-serif;-inkscape-font-specification:'sans-serif Bold';text-align:center;letter-spacing:0px;word-spacing:0px;text-anchor:middle;fill:#000000;fill-opacity:1;stroke:none;stroke-width:1px;stroke-linecap:butt;stroke-linejoin:miter;stroke-opacity:1"
     d="m 36.292253,12.853357 0.9375,-2.658691 1.354981,0 -2.285156,5.621338 -1.428223,0 0.651856,-1.538086 -1.600342,-4.083252 1.384277,0 0.985107,2.658691 z" /><path
     inkscape:connector-curvature="0"
     id="path4153"
     style="font-style:normal;font-variant:normal;font-weight:bold;font-stretch:normal;font-size:7.5px;line-height:125%;font-family:sans-serif;-inkscape-font-specification:'sans-serif Bold';text-align:center;letter-spacing:0px;word-spacing:0px;text-anchor:middle;fill:#000000;fill-opacity:1;stroke:none;stroke-width:1px;stroke-linecap:butt;stroke-linejoin:miter;stroke-opacity:1"
     d="m 46.846453,11.410486 -4.680176,0 0,-0.981445 4.680176,0 0,0.981445 z m 0,1.92627 -4.680176,0 0,-0.981446 4.680176,0 0,0.981446 z" /><path
     inkscape:connector-curvature="0"
     id="path4155"
     style="font-style:normal;font-variant:normal;font-weight:bold;font-stretch:normal;font-size:7.5px;line-height:125%;font-family:sans-serif;-inkscape-font-specification:'sans-serif Bold';text-align:center;letter-spacing:0px;word-spacing:0px;text-anchor:middle;fill:#000000;fill-opacity:1;stroke:none;stroke-width:1px;stroke-linecap:butt;stroke-linejoin:miter;stroke-opacity:1"
     d="m 54.936052,14.307215 -3.640136,0 0,-0.952149 1.149902,0 0,-2.88208 -1.149902,0 0,-0.8898924 q 0.263671,0 0.505371,-0.029297 0.241699,-0.032959 0.402832,-0.1098633 0.190429,-0.091553 0.285644,-0.2380371 0.09521,-0.1464844 0.109864,-0.366211 l 1.212158,0 0,4.5153808 1.124267,0 0,0.952149 z" /><path
     inkscape:connector-curvature="0"
     id="path4157"
     style="font-style:normal;font-variant:normal;font-weight:bold;font-stretch:normal;font-size:7.5px;line-height:125%;font-family:sans-serif;-inkscape-font-specification:'sans-serif Bold';text-align:center;letter-spacing:0px;word-spacing:0px;text-anchor:middle;fill:#000000;fill-opacity:1;stroke:none;stroke-width:1px;stroke-linecap:butt;stroke-linejoin:miter;stroke-opacity:1"
     d="m 60.429216,12.626307 -0.256347,0 q -0.644532,0 -0.933838,0.256347 -0.289307,0.252686 -0.289307,0.904541 l 0,0.53833 q 0,0.695801 -0.424804,1.054688 -0.421143,0.362549 -1.131592,0.362549 l -1.003418,0 0,-0.820313 0.41748,0 q 0.219727,0 0.395508,-0.03296 0.179443,-0.03296 0.300293,-0.124512 0.124512,-0.09521 0.186768,-0.27832 0.06226,-0.179443 0.06226,-0.465088 l 0,-0.39917 q 0,-0.512695 0.285645,-0.856933 0.289307,-0.344239 0.820312,-0.545655 l 0,-0.08789 q -0.531005,-0.201416 -0.820312,-0.545655 -0.285645,-0.344238 -0.285645,-0.856933 l 0,-0.39917 q 0,-0.285645 -0.06226,-0.4650879 Q 57.627703,9.6819706 57.503191,9.5867558 57.382341,9.495203 57.202898,9.462244 57.027117,9.429285 56.80739,9.429285 l -0.41748,0 0,-0.8203125 1.003418,0 q 0.710449,0 1.131592,0.3625489 0.424804,0.3588867 0.424804,1.0546876 l 0,0.53833 q 0,0.651855 0.289307,0.908203 0.289306,0.252686 0.933838,0.252686 l 0.256347,0 0,0.900879 z" /><path
     inkscape:connector-curvature="0"
     id="path4159"
     style="font-style:normal;font-variant:normal;font-weight:bold;font-stretch:normal;font-size:7.5px;line-height:125%;font-family:sans-serif;-inkscape-font-specification:'sans-serif Bold';text-align:center;letter-spacing:0px;word-spacing:0px;text-anchor:middle;fill:#000000;fill-opacity:1;stroke:none;stroke-width:1px;stroke-linecap:butt;stroke-linejoin:miter;stroke-opacity:1"
     d="m 29.788347,23.366008 0,-0.27832 q 0.435791,0.216064 0.60791,0.325928 0.175782,0.109863 0.523682,0.388183 l 0,-5.397949 0.369873,0 0,5.397949 q 0.395508,-0.377197 1.131592,-0.721435 l 0,0.281982 q -0.527344,0.472412 -0.802002,0.812988 -0.270996,0.340576 -0.443115,0.703125 l -0.168457,0 q -0.135498,-0.314941 -0.413819,-0.670166 -0.274658,-0.355224 -0.805664,-0.842285 z" /><path
     inkscape:connector-curvature="0"
     id="path4161"
     style="font-style:normal;font-variant:normal;font-weight:bold;font-stretch:normal;font-size:7.5px;line-height:125%;font-family:sans-serif;-inkscape-font-specification:'sans-serif Bold';text-align:center;letter-spacing:0px;word-spacing:0px;text-anchor:middle;fill:#000000;fill-opacity:1;stroke:none;stroke-width:1px;stroke-linecap:butt;stroke-linejoin:miter;stroke-opacity:1"
     d="m 22.416521,34.492762 -2.446289,0 0,-7.133789 2.446289,0 0,0.878906 -1.300049,0 0,5.375976 1.300049,0 0,0.878907 z" /><path
     inkscape:connector-curvature="0"
     id="path4163"
     style="font-style:normal;font-variant:normal;font-weight:bold;font-stretch:normal;font-size:7.5px;line-height:125%;font-family:sans-serif;-inkscape-font-specification:'sans-serif Bold';text-align:center;letter-spacing:0px;word-spacing:0px;text-anchor:middle;fill:#000000;fill-opacity:1;stroke:none;stroke-width:1px;stroke-linecap:butt;stroke-linejoin:miter;stroke-opacity:1"
     d="m 28.05617,30.328943 q 0,0.688477 -0.124512,1.234131 -0.124512,0.541992 -0.388184,0.889893 -0.270996,0.355224 -0.695801,0.53833 -0.424804,0.179443 -1.047363,0.179443 -0.611572,0 -1.043701,-0.183105 Q 24.32448,32.804529 24.057146,32.445642 23.78615,32.086756 23.6653,31.55575 q -0.120849,-0.534668 -0.120849,-1.223145 0,-0.710449 0.124511,-1.23413 0.124512,-0.523682 0.395508,-0.886231 0.270996,-0.358887 0.703125,-0.53833 0.432129,-0.179443 1.032715,-0.179443 0.626221,0 1.051026,0.186767 0.424804,0.183106 0.6958,0.549317 0.267334,0.358886 0.388184,0.88623 0.12085,0.523682 0.12085,1.212158 z m -1.417237,0 q 0,-0.988769 -0.194092,-1.40625 -0.194091,-0.421142 -0.644531,-0.421142 -0.450439,0 -0.644531,0.421142 -0.194092,0.417481 -0.194092,1.413574 0,0.970459 0.197754,1.398926 0.197754,0.428467 0.640869,0.428467 0.443115,0 0.640869,-0.428467 0.197754,-0.428467 0.197754,-1.40625 z" /><path
     inkscape:connector-curvature="0"
     id="path4165"
     style="font-style:normal;font-variant:normal;font-weight:bold;font-stretch:normal;font-size:7.5px;line-height:125%;font-family:sans-serif;-inkscape-font-specification:'sans-serif Bold';text-align:center;letter-spacing:0px;word-spacing:0px;text-anchor:middle;fill:#000000;fill-opacity:1;stroke:none;stroke-width:1px;stroke-linecap:butt;stroke-linejoin:miter;stroke-opacity:1"
     d="m 30.729509,31.618006 -1.318359,2.794189 -0.81665,0 0.721435,-2.794189 1.413574,0 z" /><path
     inkscape:connector-curvature="0"
     id="path4167"
     style="font-style:normal;font-variant:normal;font-weight:bold;font-stretch:normal;font-size:7.5px;line-height:125%;font-family:sans-serif;-inkscape-font-specification:'sans-serif Bold';text-align:center;letter-spacing:0px;word-spacing:0px;text-anchor:middle;fill:#000000;fill-opacity:1;stroke:none;stroke-width:1px;stroke-linecap:butt;stroke-linejoin:miter;stroke-opacity:1"
     d="m 38.354021,33.057215 -3.640137,0 0,-0.952149 1.149903,0 0,-2.88208 -1.149903,0 0,-0.889892 q 0.263672,0 0.505371,-0.0293 0.2417,-0.03296 0.402832,-0.109864 0.19043,-0.09155 0.285645,-0.238037 0.09521,-0.146484 0.109863,-0.366211 l 1.212158,0 0,4.515381 1.124268,0 0,0.952149 z" /><path
     inkscape:connector-curvature="0"
     id="path4169"
     style="font-style:normal;font-variant:normal;font-weight:bold;font-stretch:normal;font-size:7.5px;line-height:125%;font-family:sans-serif;-inkscape-font-specification:'sans-serif Bold';text-align:center;letter-spacing:0px;word-spacing:0px;text-anchor:middle;fill:#000000;fill-opacity:1;stroke:none;stroke-width:1px;stroke-linecap:butt;stroke-linejoin:miter;stroke-opacity:1"
     d="m 42.243181,34.492762 -2.446289,0 0,-0.878907 1.300049,0 0,-5.375976 -1.300049,0 0,-0.878906 2.446289,0 0,7.133789 z" /></svg>